<?xml version="1.0" encoding="UTF-8" standalone="no"?>
<svg width="456" height="550" viewBox="0 0 456 550" version="1.1" xmlns="http://www.w3.org/2000/svg">
    <g transform="translate(0,-60)">
        <path d="M228,228 L228,78 A150,150 0 0,1 334.07,121.93 Z" fill="#D9552E" />
        <path d="M228,228 L334.07,121.93 A150,150 0 0,1 378,228 Z" fill="#F1E4CC" />
        <path d="M228,228 L378,228 A150,150 0 0,1 334.07,334.07 Z" fill="#D9552E" />
        <path d="M228,228 L334.07,334.07 A150,150 0 0,1 228,378 Z" fill="#F1E4CC" />
        <path d="M228,228 L228,378 A150,150 0 0,1 121.93,334.07 Z" fill="#D9552E" />
        <path d="M228,228 L121.93,334.07 A150,150 0 0,1 78,228 Z" fill="#F1E4CC" />
        <path d="M228,228 L78,228 A150,150 0 0,1 121.93,121.93 Z" fill="#D9552E" />
        <path d="M228,228 L121.93,121.93 A150,150 0 0,1 228,78 Z" fill="#F1E4CC" />
        <circle cx="228" cy="228" r="150" fill="none" stroke="#0A2624" stroke-width="6" />
        <circle cx="228" cy="228" r="26" fill="#E3A23C" stroke="#0A2624" stroke-width="4" />
    </g>
    <text x="228" y="470" text-anchor="middle" font-family="Rockwell, Georgia, serif" font-size="48" letter-spacing="6" fill="#F1E4CC">OMBRA</text>
</svg>
