<?xml version="1.0" encoding="UTF-8" standalone="no"?>
<svg width="456" height="456" viewBox="0 0 456 456" version="1.1" xmlns="http://www.w3.org/2000/svg">
    <path d="M228,228 L228,118 A110,110 0 0,1 305.78,150.22 Z" fill="#D9552E" />
    <path d="M228,228 L305.78,150.22 A110,110 0 0,1 338,228 Z" fill="#F1E4CC" />
    <path d="M228,228 L338,228 A110,110 0 0,1 305.78,305.78 Z" fill="#D9552E" />
    <path d="M228,228 L305.78,305.78 A110,110 0 0,1 228,338 Z" fill="#F1E4CC" />
    <path d="M228,228 L228,338 A110,110 0 0,1 150.22,305.78 Z" fill="#D9552E" />
    <path d="M228,228 L150.22,305.78 A110,110 0 0,1 118,228 Z" fill="#F1E4CC" />
    <path d="M228,228 L118,228 A110,110 0 0,1 150.22,150.22 Z" fill="#D9552E" />
    <path d="M228,228 L150.22,150.22 A110,110 0 0,1 228,118 Z" fill="#F1E4CC" />
    <circle cx="228" cy="228" r="110" fill="none" stroke="#0A2624" stroke-width="6" />
    <circle cx="228" cy="228" r="18" fill="#E3A23C" stroke="#0A2624" stroke-width="4" />
</svg>
